<?xml version="1.0" standalone="no"?>
<!DOCTYPE svg PUBLIC "-//W3C//DTD SVG 20010904//EN"
 "http://www.w3.org/TR/2001/REC-SVG-20010904/DTD/svg10.dtd">
<svg version="1.0" xmlns="http://www.w3.org/2000/svg"
 width="802.000000pt" height="802.000000pt" viewBox="0 0 802.000000 802.000000"
 preserveAspectRatio="xMidYMid meet">
<metadata>
Created by potrace 1.11, written by Peter Selinger 2001-2013
</metadata>
<g transform="translate(0.000000,802.000000) scale(0.100000,-0.100000)"
fill="#000000" stroke="none">
<path d="M4031 6026 l-1 -1969 23 19 c12 10 24 21 27 24 3 3 111 100 240 215
129 115 255 228 280 251 76 70 119 101 54 38 -34 -32 -168 -162 -299 -289
-130 -126 -252 -245 -270 -262 l-34 -33 1487 1 1487 1 -235 78 c-129 43 -363
119 -520 170 -394 127 -707 229 -755 245 -22 7 -182 59 -355 115 -173 56 -327
106 -342 112 -31 12 -34 20 -67 179 -6 26 -19 82 -30 125 -16 62 -100 421
-116 494 -2 8 -11 47 -20 85 -9 39 -18 77 -20 85 -25 110 -67 288 -129 555
-52 219 -49 208 -66 280 -31 139 -163 700 -181 771 -11 45 -21 90 -24 100 -4
23 -38 168 -66 289 -12 50 -32 135 -44 190 l-23 100 -1 -1969z"/>
<path d="M3977 7950 c-4 -19 -9 -44 -11 -55 -3 -11 -16 -67 -29 -125 -14 -58
-43 -181 -65 -275 -22 -93 -56 -240 -77 -325 -20 -85 -39 -165 -41 -177 -2
-12 -16 -71 -30 -130 -14 -60 -27 -115 -29 -123 -4 -20 -66 -284 -150 -640
-36 -157 -68 -294 -71 -305 -2 -11 -6 -29 -8 -40 -2 -11 -12 -49 -21 -85 -9
-36 -19 -76 -22 -90 -2 -14 -18 -81 -34 -150 -17 -69 -33 -136 -35 -150 -3
-14 -21 -90 -40 -170 -18 -80 -43 -185 -55 -235 -11 -49 -22 -97 -25 -106 -5
-19 -36 -30 -359 -134 -132 -43 -285 -92 -340 -110 -112 -37 -634 -206 -1155
-375 -190 -61 -352 -114 -360 -118 -18 -8 1158 -13 2208 -10 654 3 734 5 720
18 -8 8 -129 126 -269 261 -140 135 -281 272 -314 304 -59 57 -19 28 60 -44
22 -20 103 -92 180 -161 77 -69 194 -174 260 -234 l120 -108 3 981 c3 1446 -2
2951 -11 2911z"/>
<path d="M4860 6400 c0 -3 5 -32 11 -65 5 -33 12 -73 15 -90 2 -16 7 -48 10
-70 3 -22 8 -53 10 -70 2 -16 6 -41 10 -55 3 -14 8 -38 10 -55 2 -16 8 -59 14
-95 6 -36 12 -75 13 -87 1 -13 3 -23 5 -23 14 0 92 43 92 50 0 6 3 9 8 8 8 -1
45 13 52 21 6 7 27 20 170 102 130 75 144 83 150 89 3 3 17 11 32 19 16 8 26
17 23 19 -2 3 -55 6 -117 8 -265 8 -266 8 -289 37 -11 15 -26 33 -32 40 -11
10 -70 82 -117 140 -34 43 -70 82 -70 77z"/>
<path d="M4504 6222 c3 -10 8 -34 12 -54 6 -34 10 -39 48 -48 37 -10 252 -75
281 -86 9 -4 9 8 0 52 -9 46 -16 59 -36 67 -33 12 -179 57 -204 61 -11 3 -39
9 -63 14 -38 9 -42 8 -38 -6z"/>
<path d="M3360 6171 c-132 -43 -129 -42 -235 -89 -107 -46 -212 -103 -315
-170 -80 -52 -240 -170 -240 -178 0 -2 18 -15 41 -29 l40 -26 67 49 c197 146
425 265 638 334 l132 43 11 42 c20 77 22 77 -139 24z"/>
<path d="M2010 6021 c0 -7 161 -171 883 -900 158 -160 287 -285 288 -278 1 18
8 56 19 107 5 25 12 58 15 74 5 31 23 125 30 163 4 18 -16 35 -130 112 -75 50
-138 91 -141 91 -5 0 -64 40 -74 50 -3 3 -17 11 -32 19 -15 8 -37 22 -47 33
-11 10 -23 18 -26 18 -5 0 -343 223 -362 240 -7 5 -14 10 -17 10 -2 0 -41 25
-86 55 -45 30 -84 55 -86 55 -3 0 -10 5 -17 10 -31 27 -217 147 -217 141z"/>
<path d="M5953 5990 c-28 -22 -57 -40 -62 -40 -6 0 -11 -4 -11 -9 0 -5 -8 -11
-17 -15 -19 -6 -54 -27 -63 -37 -10 -11 -192 -129 -200 -129 -5 0 -10 -3 -12
-8 -1 -4 -115 -81 -253 -171 -137 -90 -253 -169 -257 -175 -4 -6 -8 -8 -8 -3
0 6 -138 -80 -150 -94 -3 -3 -38 -27 -78 -53 -64 -41 -72 -49 -68 -72 3 -14
19 -99 37 -189 l32 -162 293 296 c323 326 787 796 849 860 50 52 35 52 -32 1z"/>
<path d="M1990 6007 c0 -10 12 -36 26 -59 15 -23 39 -68 54 -100 15 -31 30
-55 34 -51 3 3 6 -3 6 -14 0 -12 3 -23 8 -25 4 -1 20 -30 37 -63 16 -33 32
-62 35 -65 3 -3 20 -34 38 -70 17 -36 50 -99 73 -140 70 -130 126 -232 167
-310 22 -41 61 -113 86 -160 25 -47 58 -110 73 -140 16 -30 31 -57 34 -60 3
-3 15 -26 28 -51 l22 -47 167 54 c92 30 191 61 220 71 57 18 63 29 30 60 -13
11 -102 103 -199 204 -97 101 -216 225 -264 274 -47 50 -182 189 -298 309
-117 121 -243 251 -280 289 -38 39 -75 80 -83 91 -12 18 -14 18 -14 3z"/>
<path d="M5945 5928 c-89 -94 -448 -466 -585 -607 -317 -326 -485 -504 -488
-515 -2 -8 63 -33 180 -71 101 -32 199 -64 219 -71 l36 -12 30 56 c90 169 118
222 146 272 17 30 52 96 78 145 26 50 61 115 77 145 17 30 39 71 48 90 10 19
23 38 28 42 6 4 7 8 2 8 -5 0 -4 6 2 13 5 6 27 46 49 87 22 41 57 107 78 145
21 39 52 97 69 130 17 33 34 62 39 63 4 2 7 12 7 22 0 10 3 20 8 22 8 3 76
128 69 128 -2 0 -43 -42 -92 -92z"/>
<path d="M5252 5874 l-33 -26 102 -69 101 -70 34 26 c19 14 34 30 34 35 0 15
-164 130 -185 130 -11 0 -35 -12 -53 -26z"/>
<path d="M5793 5425 c-30 -45 -29 -60 6 -104 168 -213 325 -552 396 -853 l28
-117 49 -17 c27 -9 51 -14 52 -13 2 2 -7 55 -20 118 -72 363 -236 707 -479
1008 -7 10 -16 4 -32 -22z"/>
<path d="M2196 5330 c-25 -34 -66 -95 -91 -135 l-46 -73 32 -47 31 -47 25 44
c14 24 52 84 85 134 63 97 64 108 24 166 -14 19 -16 17 -60 -42z"/>
<path d="M1862 4965 c-45 -113 -82 -210 -82 -215 0 -6 9 -6 26 0 14 6 38 12
54 15 28 5 148 31 180 39 8 2 43 9 77 16 l62 12 -106 157 c-58 86 -111 162
-118 169 -9 10 -29 -30 -93 -193z"/>
<path d="M1916 4711 c-37 -6 -40 -9 -57 -58 -21 -64 -73 -292 -67 -298 2 -3
27 3 54 12 l50 15 18 82 c10 44 31 120 46 169 31 96 34 90 -44 78z"/>
<path d="M1010 3996 c0 -5 66 -28 230 -81 80 -25 240 -77 355 -115 116 -37
352 -114 525 -170 173 -56 347 -112 385 -125 39 -13 205 -67 370 -120 396
-127 356 -108 369 -175 3 -14 10 -45 17 -70 6 -25 12 -52 14 -60 2 -8 22 -94
44 -190 39 -165 79 -337 86 -370 2 -8 20 -85 40 -170 20 -85 38 -162 40 -170
2 -8 13 -55 25 -105 12 -49 24 -101 26 -115 3 -14 11 -50 19 -80 8 -30 16 -66
19 -80 2 -14 28 -124 56 -245 76 -322 88 -371 110 -465 11 -47 49 -211 85
-365 36 -154 87 -372 113 -484 l47 -203 3 981 c1 539 1 1422 0 1961 l-3 979
-35 -30 c-19 -17 -53 -47 -76 -67 -39 -36 -170 -152 -204 -182 -16 -14 -136
-123 -239 -217 -25 -23 -47 -40 -49 -38 -3 2 133 137 298 295 41 40 123 119
182 176 l106 104 -1479 0 c-813 0 -1479 -2 -1479 -4z m2359 -588 c-2 -2 -17
-14 -34 -28 l-30 -25 29 32 c16 18 32 31 34 28 3 -3 3 -6 1 -7z"/>
<path d="M4069 3981 c13 -11 131 -125 263 -253 132 -128 260 -252 285 -275 25
-24 42 -43 37 -43 -5 0 -32 22 -60 48 -47 44 -206 189 -244 222 -40 35 -165
147 -190 170 -40 36 -93 83 -113 99 -16 13 -17 -90 -16 -1955 1 -1083 5 -1953
9 -1934 4 19 26 116 49 215 24 99 44 185 45 190 1 6 10 46 20 90 10 44 24 103
32 130 7 28 15 61 18 75 2 14 13 63 25 110 31 132 81 343 85 365 3 11 26 110
51 220 26 110 49 207 50 215 2 8 22 94 45 190 23 96 43 182 45 190 2 8 29 123
60 255 30 132 58 251 61 265 3 14 12 51 20 83 8 32 19 77 24 100 5 23 18 83
30 132 12 50 23 97 25 105 13 61 57 248 61 261 6 20 15 23 404 149 794 257
1397 453 1630 530 l205 68 -1489 1 c-1476 1 -1489 1 -1467 -18z m632 -608 c13
-16 12 -17 -3 -4 -17 13 -22 21 -14 21 2 0 10 -8 17 -17z"/>
<path d="M6270 3686 c-23 -8 -37 -21 -42 -37 -3 -13 -22 -89 -41 -169 -19 -80
-38 -152 -42 -162 -6 -14 -1 -16 37 -11 24 3 50 9 59 14 15 8 55 152 79 283
18 104 16 106 -50 82z"/>
<path d="M1786 3633 c39 -229 114 -463 209 -658 67 -138 220 -379 234 -370 5
3 18 23 30 45 l21 40 -61 92 c-132 201 -258 504 -311 750 l-23 108 -44 15
c-61 21 -63 20 -55 -22z"/>
<path d="M2635 3222 c-43 -81 -90 -169 -105 -197 -88 -161 -108 -199 -157
-289 -29 -55 -53 -103 -53 -108 0 -4 -4 -8 -10 -8 -5 0 -10 -9 -10 -19 0 -11
-3 -21 -7 -23 -5 -1 -28 -41 -52 -88 -25 -47 -67 -125 -93 -175 -27 -49 -59
-110 -71 -135 -12 -25 -24 -47 -27 -50 -10 -10 -60 -116 -60 -128 0 -6 4 -12
8 -12 9 0 132 79 142 91 3 3 21 14 40 25 19 10 41 25 48 32 8 7 28 20 45 29
18 9 34 19 37 22 11 13 70 51 80 51 5 0 10 5 10 10 0 6 6 10 14 10 8 0 16 3
18 8 2 4 48 36 103 72 55 36 105 68 110 73 26 19 327 217 331 217 14 0 274
185 274 195 0 7 -4 25 -9 41 -5 16 -14 58 -20 94 -11 62 -16 87 -25 128 -2 9
-7 36 -11 59 l-7 42 -348 -352 c-192 -194 -457 -462 -589 -597 -133 -134 -241
-240 -241 -235 0 6 44 56 98 112 138 144 486 504 625 647 64 66 117 123 117
127 0 4 9 11 21 14 11 4 18 9 16 12 -3 2 58 68 134 146 76 78 139 147 139 153
0 5 -96 41 -212 79 -117 37 -216 69 -219 71 -3 2 -41 -63 -84 -144z"/>
<path d="M5099 3300 c-264 -86 -243 -77 -227 -94 241 -251 384 -399 834 -864
240 -248 313 -327 314 -336 0 -5 -134 126 -297 292 -727 736 -883 891 -883
877 0 -8 0 -17 -1 -20 -1 -2 -5 -24 -11 -47 -5 -24 -12 -54 -14 -68 -2 -14 -9
-47 -14 -75 -6 -27 -12 -61 -15 -75 -3 -14 -7 -37 -10 -51 -6 -25 3 -33 129
-118 75 -50 141 -91 146 -91 6 0 10 -4 10 -10 0 -5 4 -10 10 -10 11 0 103 -62
108 -72 2 -5 8 -8 12 -8 8 0 366 -234 477 -311 23 -16 46 -29 51 -29 6 0 12
-3 14 -7 5 -12 66 -53 78 -53 5 0 10 -4 10 -9 0 -4 20 -19 45 -32 25 -13 45
-27 45 -31 0 -5 6 -8 13 -8 7 0 29 -14 50 -31 34 -28 57 -31 57 -9 0 9 -170
330 -330 625 -15 28 -49 91 -75 140 -27 50 -63 117 -81 150 -63 118 -138 260
-148 282 -6 13 -14 23 -18 23 -5 0 -8 6 -8 13 0 6 -15 37 -33 68 l-32 56 -206
-67z"/>
<path d="M6319 3275 c-4 -3 -16 -8 -28 -10 -11 -3 -31 -7 -43 -10 -13 -3 -39
-8 -58 -12 -19 -4 -37 -8 -40 -8 -6 -2 -123 -28 -130 -30 -3 -1 -24 -5 -48 -9
l-42 -8 106 -156 c59 -87 112 -163 119 -170 9 -10 29 30 94 194 72 183 90 240
70 219z"/>
<path d="M5965 2903 c-21 -38 -71 -116 -111 -175 l-73 -108 23 -46 23 -46 50
64 c55 69 154 218 174 260 10 24 8 32 -19 73 l-30 45 -37 -67z"/>
<path d="M2576 2294 c-45 -31 -45 -31 69 -119 105 -81 98 -78 142 -54 57 31
57 34 11 64 -24 15 -70 49 -103 74 -33 26 -65 50 -71 54 -6 3 -27 -5 -48 -19z"/>
<path d="M5415 2258 c-233 -178 -562 -337 -831 -402 -65 -16 -72 -20 -77 -46
-4 -15 -9 -40 -13 -55 -6 -24 -5 -27 15 -20 11 3 33 8 48 11 147 26 415 125
581 215 144 78 392 250 392 271 0 5 -8 11 -17 15 -10 3 -27 14 -38 24 -19 17
-21 17 -60 -13z"/>
<path d="M3080 2215 c-5 -6 -34 -24 -65 -40 -30 -16 -55 -33 -55 -38 0 -4 -4
-6 -9 -3 -5 3 -14 -1 -21 -9 -7 -8 -16 -12 -21 -9 -5 3 -9 0 -9 -5 0 -6 -6
-11 -14 -11 -7 0 -19 -7 -26 -15 -7 -8 -16 -13 -20 -10 -5 3 -10 2 -12 -2 -5
-12 -88 -64 -88 -56 0 5 -4 3 -8 -3 -4 -6 -26 -21 -49 -33 -24 -12 -43 -26
-43 -32 0 -6 -4 -8 -9 -5 -4 3 -17 -1 -27 -9 -15 -11 -16 -15 -4 -15 15 -1
148 -7 302 -13 83 -3 71 4 150 -92 44 -53 135 -162 150 -179 17 -18 17 -18 13
5 -2 13 -7 47 -11 74 -4 28 -8 57 -10 65 -1 8 -5 33 -9 56 -3 22 -8 52 -10 65
-19 108 -48 300 -48 316 0 14 -35 13 -47 -2z"/>
<path d="M3241 1895 c4 -31 9 -58 11 -59 6 -6 154 -54 198 -66 25 -6 52 -13
61 -16 14 -4 15 1 5 45 -6 27 -14 53 -18 57 -4 3 -58 23 -120 44 -62 21 -120
41 -129 44 -14 6 -15 0 -8 -49z"/>
</g>
</svg>
